<svg xmlns="http://www.w3.org/2000/svg" viewBox="0 0 420 860" role="img" aria-label=".'FG E-AD">
  <defs>
    <linearGradient id="ah-bg" x1="0" y1="0" x2="0" y2="1">
      <stop offset="0%" stop-color="#0e1214"/>
      <stop offset="100%" stop-color="#07090a"/>
    </linearGradient>
  </defs>
  <rect width="420" height="860" rx="48" fill="url(#ah-bg)" stroke="#f4efe6" stroke-opacity="0.08"/>
  <rect x="160" y="22" width="100" height="22" rx="11" fill="#000"/>
  <g transform="translate(24,80)">
    <text fill="#c9a24a" font-size="11" font-family="sans-serif" letter-spacing="4">5(-P 4F(G</text>
    <text y="36" fill="#f4efe6" font-size="22" font-family="sans-serif" font-weight="700">3D'E (G1'E</text>
  </g>
  <g transform="translate(24,150)">
    <rect width="372" height="120" rx="18" fill="#161b1e" stroke="#f4efe6" stroke-opacity="0.06"/>
    <text x="18" y="28" fill="#c9a24a" font-size="10" font-family="sans-serif" letter-spacing="3">5/'Ì 'E1H2</text>
    <text x="18" y="58" fill="#f4efe6" font-size="14" font-family="sans-serif">~Ì'E B(D '2 *'©*Ì©</text>
    <text x="18" y="80" fill="#9aa0a6" font-size="11" font-family="sans-serif">ô /BÌBG ¯H4/'/F</text>
    <circle cx="340" cy="60" r="22" fill="#0e3b2c" stroke="#2fb07f" stroke-opacity="0.7"/>
    <polygon points="335,52 335,68 350,60" fill="#2fb07f"/>
  </g>
  <g transform="translate(24,290)">
    <text fill="#9aa0a6" font-size="11" font-family="sans-serif" letter-spacing="3">¯'EP (9/Ì /1 E3Ì1</text>
    <rect y="20" width="372" height="86" rx="16" fill="#0e1214" stroke="#f4efe6" stroke-opacity="0.05"/>
    <text x="18" y="48" fill="#f4efe6" font-size="13" font-family="sans-serif">A5D ó  /13 ò</text>
    <text x="18" y="70" fill="#9aa0a6" font-size="11" font-family="sans-serif">E9E'1Ì ©E~ÌF GA*1H2G</text>
    <rect x="18" y="84" width="120" height="4" rx="2" fill="#146b4f"/>
    <rect x="138" y="84" width="60" height="4" rx="2" fill="#f4efe6" fill-opacity="0.08"/>
  </g>
  <g transform="translate(24,430)">
    <text fill="#9aa0a6" font-size="11" font-family="sans-serif" letter-spacing="3">'*'B 14/</text>
    <rect y="20" width="372" height="120" rx="16" fill="#0e1214" stroke="#c9a24a" stroke-opacity="0.18"/>
    <text x="18" y="50" fill="#c9a24a" font-size="11" font-family="sans-serif">Atelier</text>
    <text x="18" y="76" fill="#f4efe6" font-size="13" font-family="sans-serif">,D3GÌ GA*¯Ì (' *ÌE</text>
    <text x="18" y="98" fill="#9aa0a6" font-size="11" font-family="sans-serif">~F,4F(G  òð:ðð</text>
  </g>
  <g transform="translate(0,780)">
    <rect width="420" height="80" fill="#0a0d0e"/>
    <g fill="#f4efe6" fill-opacity="0.55" font-size="10" font-family="sans-serif">
      <text x="50" y="48" text-anchor="middle" fill="#2fb07f">.'FG</text>
      <text x="155" y="48" text-anchor="middle">E3Ì1</text>
      <text x="260" y="48" text-anchor="middle">'*'B</text>
      <text x="365" y="48" text-anchor="middle">EF</text>
    </g>
  </g>
</svg>
