<svg xmlns="http://www.w3.org/2000/svg" viewBox="0 0 420 860" role="img" aria-label="'*'B 14/">
  <defs>
    <linearGradient id="aa-bg" x1="0" y1="0" x2="0" y2="1">
      <stop offset="0%" stop-color="#0e1214"/>
      <stop offset="100%" stop-color="#07090a"/>
    </linearGradient>
  </defs>
  <rect width="420" height="860" rx="48" fill="url(#aa-bg)" stroke="#f4efe6" stroke-opacity="0.08"/>
  <rect x="160" y="22" width="100" height="22" rx="11" fill="#000"/>
  <g transform="translate(24,80)" font-family="sans-serif">
    <text fill="#c9a24a" font-size="11" letter-spacing="4">ATELIER</text>
    <text y="36" fill="#f4efe6" font-size="22" font-weight="700">'*'B 14/</text>
    <text y="64" fill="#9aa0a6" font-size="12">*ĚE 14/ *H  ó 96H</text>
  </g>
  <g transform="translate(24,170)" font-family="sans-serif">
    <rect width="372" height="120" rx="16" fill="#0e1214" stroke="#f4efe6" stroke-opacity="0.06"/>
    <circle cx="46" cy="44" r="22" fill="#0e3b2c" stroke="#2fb07f" stroke-opacity="0.6"/>
    <text x="46" y="48" text-anchor="middle" fill="#2fb07f" font-size="12">E</text>
    <text x="82" y="38" fill="#f4efe6" font-size="13">EF*H1P E3Ě1</text>
    <text x="82" y="56" fill="#9aa0a6" font-size="11">~'3. GA*ŻĚ</text>
    <rect x="18" y="78" width="336" height="28" rx="14" fill="#161b1e"/>
    <text x="32" y="96" fill="#9aa0a6" font-size="11">«'ĚF GA*G ('2.H1/P ©E~ĚF* "E/.»</text>
  </g>
  <g transform="translate(24,310)" font-family="sans-serif">
    <rect width="372" height="120" rx="16" fill="#0e1214" stroke="#f4efe6" stroke-opacity="0.06"/>
    <text x="18" y="32" fill="#c9a24a" font-size="11" letter-spacing="3">MOVEMENTS</text>
    <text x="18" y="58" fill="#f4efe6" font-size="13">4'.5G'Ě GA*ŻĚ</text>
    <g transform="translate(18,76)">
      <rect width="100" height="34" rx="10" fill="#0e3b2c"/>
      <text x="50" y="22" text-anchor="middle" fill="#2fb07f" font-size="12">+ńřj /F('D©FF/G</text>
    </g>
    <g transform="translate(130,76)">
      <rect width="100" height="34" rx="10" fill="#161b1e"/>
      <text x="50" y="22" text-anchor="middle" fill="#f4efe6" font-size="12">ô ©E~ĚF A9'D</text>
    </g>
  </g>
  <g transform="translate(24,450)" font-family="sans-serif">
    <rect width="372" height="180" rx="16" fill="#0e1214" stroke="#c9a24a" stroke-opacity="0.2"/>
    <text x="18" y="32" fill="#c9a24a" font-size="11" letter-spacing="3">DIRECT LINE</text>
    <text x="18" y="58" fill="#f4efe6" font-size="13">~F,1GĚ E3*BĚE (' *ĚE</text>
    <rect x="18" y="80" width="336" height="80" rx="12" fill="#161b1e"/>
    <text x="32" y="106" fill="#9aa0a6" font-size="11">«~Ě'E* +(* 4/.»</text>
    <text x="32" y="128" fill="#9aa0a6" font-size="11">«*' ňô 3'9* ~'3. EĚŻĚ1Ě.»</text>
  </g>
  <g transform="translate(0,780)">
    <rect width="420" height="80" fill="#0a0d0e"/>
    <g fill="#f4efe6" fill-opacity="0.55" font-size="10" font-family="sans-serif">
      <text x="50" y="48" text-anchor="middle">.'FG</text>
      <text x="155" y="48" text-anchor="middle">E3Ě1</text>
      <text x="260" y="48" text-anchor="middle" fill="#2fb07f">'*'B</text>
      <text x="365" y="48" text-anchor="middle">EF</text>
    </g>
  </g>
</svg>
