<svg xmlns="http://www.w3.org/2000/svg" viewBox="0 0 36 36"><circle fill="#FFCC4D" cx="18" cy="18" r="18"/><path fill="#664500" d="M9.5 19.5c2.8 5.2 6.2 7.8 8.5 7.8s5.7-2.6 8.5-7.8c.4-.7.1-1.6-.6-2-.7-.4-1.6-.1-2 .6-2.1 3.9-4.4 5.8-5.9 5.8s-3.8-1.9-5.9-5.8c-.4-.7-1.3-1-2-.6-.7.4-1 1.3-.6 2z"/><path fill="#fff" d="M12 20.5c.8 1.2 1.7 1.8 2.5 1.8s1.7-.6 2.5-1.8"/><path fill="#fff" d="M19 20.5c.8 1.2 1.7 1.8 2.5 1.8s1.7-.6 2.5-1.8"/><path fill="#664500" d="M11 13.5c0-1.4 1.1-2.5 2.5-2.5s2.5 1.1 2.5 2.5-1.1 2.5-2.5 2.5-2.5-1.1-2.5-2.5zm11 0c0-1.4 1.1-2.5 2.5-2.5s2.5 1.1 2.5 2.5-1.1 2.5-2.5 2.5-2.5-1.1-2.5-2.5z"/></svg>
