<svg xmlns="http://www.w3.org/2000/svg" viewBox="0 0 420 860" role="img" aria-label="اپ سات — صفحه اصلی">
  <defs>
    <linearGradient id="ah-bg" x1="0" y1="0" x2="0" y2="1">
      <stop offset="0%" stop-color="#0D1517"/>
      <stop offset="100%" stop-color="#050A0B"/>
    </linearGradient>
  </defs>
  <rect width="420" height="860" rx="48" fill="url(#ah-bg)" stroke="#EAFBFB" stroke-opacity="0.08"/>
  <rect x="160" y="22" width="100" height="22" rx="11" fill="#000"/>
  <g transform="translate(24,80)" font-family="Tahoma,sans-serif">
    <text fill="#FFB000" font-size="11" letter-spacing="4">HOME</text>
    <text y="36" fill="#EAFBFB" font-size="22" font-weight="700">داشبورد</text>
  </g>
  <g transform="translate(24,150)" font-family="Tahoma,sans-serif">
    <rect width="372" height="120" rx="18" fill="#142326" stroke="#EAFBFB" stroke-opacity="0.06"/>
    <text x="18" y="28" fill="#FFB000" font-size="10" letter-spacing="2">ویدیوی امروز</text>
    <text x="18" y="58" fill="#EAFBFB" font-size="14">شروع روز با تمرکز</text>
    <text x="18" y="80" fill="#95B4B8" font-size="11">۳ دقیقه · مسیر فروش</text>
    <circle cx="340" cy="60" r="22" fill="#003B40" stroke="#008C96" stroke-opacity="0.7"/>
    <polygon points="335,52 335,68 350,60" fill="#008C96"/>
  </g>
  <g transform="translate(24,290)" font-family="Tahoma,sans-serif">
    <text fill="#95B4B8" font-size="11" letter-spacing="2">مسیر امروز</text>
    <rect y="20" width="372" height="86" rx="16" fill="#0D1517" stroke="#EAFBFB" stroke-opacity="0.05"/>
    <text x="18" y="48" fill="#EAFBFB" font-size="13">مرحله ۲ از ۱۳</text>
    <text x="18" y="70" fill="#95B4B8" font-size="11">تماس هدفمند · کیفیت</text>
    <rect x="18" y="84" width="120" height="4" rx="2" fill="#008C96"/>
    <rect x="138" y="84" width="60" height="4" rx="2" fill="#EAFBFB" fill-opacity="0.08"/>
  </g>
  <g transform="translate(24,430)" font-family="Tahoma,sans-serif">
    <text fill="#95B4B8" font-size="11" letter-spacing="2">آتلیه</text>
    <rect y="20" width="372" height="120" rx="16" fill="#0D1517" stroke="#FFB000" stroke-opacity="0.18"/>
    <text x="18" y="50" fill="#FFB000" font-size="11">Atelier</text>
    <text x="18" y="76" fill="#EAFBFB" font-size="13">تمرین فروش زنده</text>
    <text x="18" y="98" fill="#95B4B8" font-size="11">امروز · ۱۸:۰۰</text>
  </g>
  <g transform="translate(0,780)">
    <rect width="420" height="80" fill="#020607"/>
    <g fill="#EAFBFB" fill-opacity="0.55" font-size="10" font-family="Tahoma,sans-serif">
      <text x="50" y="48" text-anchor="middle" fill="#008C96">خانه</text>
      <text x="155" y="48" text-anchor="middle">مسیر</text>
      <text x="260" y="48" text-anchor="middle">آتلیه</text>
      <text x="365" y="48" text-anchor="middle">پروفایل</text>
    </g>
  </g>
</svg>
