<svg xmlns="http://www.w3.org/2000/svg" viewBox="0 0 120 120" fill="none" role="img" aria-label="???? ?????? ??????????">
  <rect width="120" height="120" rx="10" fill="#ffffff"/>
  <path d="M60 10 94 24v32c0 24.5-17.2 46.8-34 54-16.8-7.2-34-29.5-34-54V24L60 10Z" fill="#0B3D6E" stroke="#D4AF37" stroke-width="3"/>
  <path d="M60 24 78 32v22c0 15.6-10.8 29.8-18 34.2-7.2-4.4-18-18.6-18-34.2V32l18-8Z" fill="#ffffff"/>
  <path d="M52 46c0-4.4 3.6-8 8-8s8 3.6 8 8-3.6 8-8 8" fill="#0B3D6E"/>
  <path d="M48 58h24v6c0 6.6-5.4 12-12 12s-12-5.4-12-12v-6Z" fill="#0B3D6E"/>
  <text x="60" y="98" text-anchor="middle" font-family="Tahoma, Arial, sans-serif" font-size="9" font-weight="700" fill="#0B3D6E">???? ?????? ??????????</text>
  <text x="60" y="110" text-anchor="middle" font-family="Tahoma, Arial, sans-serif" font-size="8" fill="#64748b">enamad.ir</text>
</svg>
