<svg xmlns="http://www.w3.org/2000/svg" viewBox="0 0 420 860" role="img" aria-label="اپ سات — آتلیه فروش">
  <defs>
    <linearGradient id="aa-bg" x1="0" y1="0" x2="0" y2="1">
      <stop offset="0%" stop-color="#0D1517"/>
      <stop offset="100%" stop-color="#050A0B"/>
    </linearGradient>
  </defs>
  <rect width="420" height="860" rx="48" fill="url(#aa-bg)" stroke="#EAFBFB" stroke-opacity="0.08"/>
  <rect x="160" y="22" width="100" height="22" rx="11" fill="#000"/>
  <g transform="translate(24,80)" font-family="Tahoma,sans-serif">
    <text fill="#FFB000" font-size="11" letter-spacing="4">ATELIER</text>
    <text y="36" fill="#EAFBFB" font-size="22" font-weight="700">آتلیه فروش</text>
    <text y="64" fill="#95B4B8" font-size="12">تمرین · فروش · کیف پول</text>
  </g>
  <g transform="translate(24,170)" font-family="Tahoma,sans-serif">
    <rect width="372" height="120" rx="16" fill="#0D1517" stroke="#EAFBFB" stroke-opacity="0.06"/>
    <circle cx="46" cy="44" r="22" fill="#003B40" stroke="#008C96" stroke-opacity="0.6"/>
    <text x="46" y="48" text-anchor="middle" fill="#008C96" font-size="12">ب</text>
    <text x="82" y="38" fill="#EAFBFB" font-size="13">منتور مسیر</text>
    <text x="82" y="56" fill="#95B4B8" font-size="11">بازخورد زنده</text>
    <rect x="18" y="78" width="336" height="28" rx="14" fill="#142326"/>
    <text x="32" y="96" fill="#95B4B8" font-size="11">تمرین تماس امروز</text>
  </g>
  <g transform="translate(24,310)" font-family="Tahoma,sans-serif">
    <rect width="372" height="120" rx="16" fill="#0D1517" stroke="#EAFBFB" stroke-opacity="0.06"/>
    <text x="18" y="32" fill="#FFB000" font-size="11" letter-spacing="2">حرکات</text>
    <text x="18" y="58" fill="#EAFBFB" font-size="13">ثبت فروش و کیف پول</text>
    <g transform="translate(18,76)">
      <rect width="100" height="34" rx="10" fill="#003B40"/>
      <text x="50" y="22" text-anchor="middle" fill="#008C96" font-size="12">فروش جدید</text>
    </g>
    <g transform="translate(130,76)">
      <rect width="100" height="34" rx="10" fill="#142326"/>
      <text x="50" y="22" text-anchor="middle" fill="#EAFBFB" font-size="12">کیف پول</text>
    </g>
  </g>
  <g transform="translate(24,450)" font-family="Tahoma,sans-serif">
    <rect width="372" height="180" rx="16" fill="#0D1517" stroke="#FFB000" stroke-opacity="0.2"/>
    <text x="18" y="32" fill="#FFB000" font-size="11" letter-spacing="2">خط مستقیم</text>
    <text x="18" y="58" fill="#EAFBFB" font-size="13">پشتیبانی فروشنده</text>
    <rect x="18" y="80" width="336" height="80" rx="12" fill="#142326"/>
    <text x="32" y="106" fill="#95B4B8" font-size="11">سوال امروزت را بپرس</text>
    <text x="32" y="128" fill="#95B4B8" font-size="11">پاسخ تا ۲۴ ساعت</text>
  </g>
  <g transform="translate(0,780)">
    <rect width="420" height="80" fill="#020607"/>
    <g fill="#EAFBFB" fill-opacity="0.55" font-size="10" font-family="Tahoma,sans-serif">
      <text x="50" y="48" text-anchor="middle">خانه</text>
      <text x="155" y="48" text-anchor="middle">مسیر</text>
      <text x="260" y="48" text-anchor="middle" fill="#008C96">آتلیه</text>
      <text x="365" y="48" text-anchor="middle">پروفایل</text>
    </g>
  </g>
</svg>
