<svg xmlns="http://www.w3.org/2000/svg" viewBox="0 0 420 860" role="img" aria-label="اپ سات — مسیر لیدها">
  <defs>
    <linearGradient id="ap-bg" x1="0" y1="0" x2="0" y2="1">
      <stop offset="0%" stop-color="#0D1517"/>
      <stop offset="100%" stop-color="#050A0B"/>
    </linearGradient>
  </defs>
  <rect width="420" height="860" rx="48" fill="url(#ap-bg)" stroke="#EAFBFB" stroke-opacity="0.08"/>
  <rect x="160" y="22" width="100" height="22" rx="11" fill="#000"/>
  <g transform="translate(24,80)" font-family="Tahoma,sans-serif">
    <text fill="#FFB000" font-size="11" letter-spacing="4">PATH</text>
    <text y="36" fill="#EAFBFB" font-size="22" font-weight="700">مسیر لیدها</text>
    <text y="64" fill="#95B4B8" font-size="12">هر سرنخ، مسیر مشخص</text>
  </g>
  <g transform="translate(24,170)">
    <rect width="372" height="6" rx="3" fill="#EAFBFB" fill-opacity="0.06"/>
    <rect width="120" height="6" rx="3" fill="#008C96"/>
  </g>
  <g transform="translate(24,210)" font-family="Tahoma,sans-serif">
    <g>
      <rect width="372" height="74" rx="14" fill="#142326" stroke="#008C96" stroke-opacity="0.4"/>
      <text x="18" y="28" fill="#008C96" font-size="11">مرحله ۱ — تماس اول</text>
      <text x="18" y="50" fill="#EAFBFB" font-size="14">۷ لید فعال</text>
      <text x="18" y="68" fill="#95B4B8" font-size="11">۲ تماس امروز</text>
    </g>
    <g transform="translate(0,90)">
      <rect width="372" height="64" rx="14" fill="#0D1517" stroke="#EAFBFB" stroke-opacity="0.05"/>
      <text x="18" y="26" fill="#95B4B8" font-size="11">مرحله ۲</text>
      <text x="18" y="48" fill="#EAFBFB" font-size="13">پیگیری و ارزیابی</text>
    </g>
    <g transform="translate(0,170)">
      <rect width="372" height="64" rx="14" fill="#0D1517" stroke="#EAFBFB" stroke-opacity="0.05"/>
      <text x="18" y="26" fill="#95B4B8" font-size="11">مرحله ۳</text>
      <text x="18" y="48" fill="#EAFBFB" font-size="13">پیشنهاد و بستن</text>
    </g>
    <g transform="translate(0,250)">
      <rect width="372" height="64" rx="14" fill="#0D1517" stroke="#EAFBFB" stroke-opacity="0.05"/>
      <text x="18" y="26" fill="#95B4B8" font-size="11">مرحله ۴</text>
      <text x="18" y="48" fill="#EAFBFB" font-size="13">تحویل و رضایت</text>
    </g>
    <g transform="translate(0,330)">
      <rect width="372" height="64" rx="14" fill="#0D1517" stroke="#FFB000" stroke-opacity="0.25"/>
      <text x="18" y="26" fill="#FFB000" font-size="11">مرحله ۵ — فروش</text>
      <text x="18" y="48" fill="#EAFBFB" font-size="13">ثبت قرارداد</text>
    </g>
  </g>
  <g transform="translate(0,780)">
    <rect width="420" height="80" fill="#020607"/>
    <g fill="#EAFBFB" fill-opacity="0.55" font-size="10" font-family="Tahoma,sans-serif">
      <text x="50" y="48" text-anchor="middle">خانه</text>
      <text x="155" y="48" text-anchor="middle" fill="#008C96">مسیر</text>
      <text x="260" y="48" text-anchor="middle">آتلیه</text>
      <text x="365" y="48" text-anchor="middle">پروفایل</text>
    </g>
  </g>
</svg>
